<mxfile host="app.diagrams.net" modified="2021-07-25T13:17:15.183Z" agent="5.0 (X11)" etag="zu3tSw8vbUbI8_0okNOe" version="14.9.0" type="github">
  <diagram id="ZudK6IzbTljWGc-voQmr" name="Page-1">
    <mxGraphModel dx="3385" dy="1894" grid="1" gridSize="10" guides="1" tooltips="1" connect="1" arrows="1" fold="1" page="1" pageScale="1" pageWidth="850" pageHeight="1100" math="0" shadow="0">
      <root>
        <mxCell id="0" />
        <mxCell id="1" parent="0" />
        <mxCell id="P_rBqoSXO_4Jrz354kWq-1" value="" style="rounded=1;whiteSpace=wrap;html=1;" vertex="1" parent="1">
          <mxGeometry x="-2304" y="-1050" width="240" height="290" as="geometry" />
        </mxCell>
        <mxCell id="P_rBqoSXO_4Jrz354kWq-2" value="" style="ellipse;whiteSpace=wrap;html=1;aspect=fixed;fillColor=#f8cecc;strokeColor=#b85450;" vertex="1" parent="1">
          <mxGeometry x="-2194" y="-886" width="40" height="40" as="geometry" />
        </mxCell>
        <mxCell id="P_rBqoSXO_4Jrz354kWq-3" value="" style="ellipse;whiteSpace=wrap;html=1;aspect=fixed;fillColor=#1ba1e2;strokeColor=#006EAF;fontColor=#ffffff;" vertex="1" parent="1">
          <mxGeometry x="-2114" y="-1045" width="40" height="40" as="geometry" />
        </mxCell>
        <mxCell id="P_rBqoSXO_4Jrz354kWq-4" value="" style="ellipse;whiteSpace=wrap;html=1;aspect=fixed;fillColor=#e3c800;strokeColor=#B09500;fontColor=#000000;" vertex="1" parent="1">
          <mxGeometry x="-2244" y="-1040" width="40" height="40" as="geometry" />
        </mxCell>
        <mxCell id="P_rBqoSXO_4Jrz354kWq-5" value="" style="ellipse;whiteSpace=wrap;html=1;aspect=fixed;fillColor=#e3c800;strokeColor=#B09500;fontColor=#000000;" vertex="1" parent="1">
          <mxGeometry x="-2224" y="-1000" width="40" height="40" as="geometry" />
        </mxCell>
        <mxCell id="P_rBqoSXO_4Jrz354kWq-6" value="" style="ellipse;whiteSpace=wrap;html=1;aspect=fixed;fillColor=#e51400;strokeColor=#B20000;fontColor=#ffffff;" vertex="1" parent="1">
          <mxGeometry x="-2174" y="-1040" width="40" height="40" as="geometry" />
        </mxCell>
        <mxCell id="P_rBqoSXO_4Jrz354kWq-7" value="" style="ellipse;whiteSpace=wrap;html=1;aspect=fixed;fillColor=#fff2cc;strokeColor=#d6b656;" vertex="1" parent="1">
          <mxGeometry x="-2164" y="-816" width="40" height="40" as="geometry" />
        </mxCell>
        <mxCell id="P_rBqoSXO_4Jrz354kWq-8" value="" style="ellipse;whiteSpace=wrap;html=1;aspect=fixed;fillColor=#fff2cc;strokeColor=#d6b656;" vertex="1" parent="1">
          <mxGeometry x="-2224" y="-816" width="40" height="40" as="geometry" />
        </mxCell>
        <mxCell id="P_rBqoSXO_4Jrz354kWq-9" value="" style="endArrow=none;html=1;endFill=0;" edge="1" parent="1" source="P_rBqoSXO_4Jrz354kWq-2" target="P_rBqoSXO_4Jrz354kWq-8">
          <mxGeometry width="50" height="50" relative="1" as="geometry">
            <mxPoint x="-2194" y="-860" as="sourcePoint" />
            <mxPoint x="-2144" y="-910" as="targetPoint" />
          </mxGeometry>
        </mxCell>
        <mxCell id="P_rBqoSXO_4Jrz354kWq-10" value="" style="endArrow=none;html=1;endFill=0;" edge="1" parent="1" source="P_rBqoSXO_4Jrz354kWq-2" target="P_rBqoSXO_4Jrz354kWq-7">
          <mxGeometry width="50" height="50" relative="1" as="geometry">
            <mxPoint x="-2170.946287116472" y="-837.2450247855256" as="sourcePoint" />
            <mxPoint x="-2187.0797259732235" y="-793.7645891879899" as="targetPoint" />
          </mxGeometry>
        </mxCell>
        <mxCell id="P_rBqoSXO_4Jrz354kWq-11" value="" style="ellipse;whiteSpace=wrap;html=1;aspect=fixed;fillColor=#dae8fc;strokeColor=#6c8ebf;" vertex="1" parent="1">
          <mxGeometry x="-2264" y="-910" width="40" height="40" as="geometry" />
        </mxCell>
        <mxCell id="P_rBqoSXO_4Jrz354kWq-12" value="" style="endArrow=none;html=1;endFill=0;" edge="1" parent="1" source="P_rBqoSXO_4Jrz354kWq-2" target="P_rBqoSXO_4Jrz354kWq-11">
          <mxGeometry width="50" height="50" relative="1" as="geometry">
            <mxPoint x="-2261.7794407407996" y="-885.9950087717905" as="sourcePoint" />
            <mxPoint x="-2224" y="-948.4200000000001" as="targetPoint" />
          </mxGeometry>
        </mxCell>
        <mxCell id="P_rBqoSXO_4Jrz354kWq-13" value="" style="endArrow=none;html=1;endFill=0;" edge="1" parent="1" source="P_rBqoSXO_4Jrz354kWq-2" target="P_rBqoSXO_4Jrz354kWq-14">
          <mxGeometry width="50" height="50" relative="1" as="geometry">
            <mxPoint x="-2246" y="-886" as="sourcePoint" />
            <mxPoint x="-2267.0797259732235" y="-832.18458918799" as="targetPoint" />
          </mxGeometry>
        </mxCell>
        <mxCell id="P_rBqoSXO_4Jrz354kWq-14" value="" style="ellipse;whiteSpace=wrap;html=1;aspect=fixed;fillColor=#dae8fc;strokeColor=#6c8ebf;" vertex="1" parent="1">
          <mxGeometry x="-2264" y="-856" width="40" height="40" as="geometry" />
        </mxCell>
        <mxCell id="P_rBqoSXO_4Jrz354kWq-15" value="" style="ellipse;whiteSpace=wrap;html=1;aspect=fixed;fillColor=#1ba1e2;strokeColor=#006EAF;fontColor=#ffffff;" vertex="1" parent="1">
          <mxGeometry x="-2154" y="-990" width="40" height="40" as="geometry" />
        </mxCell>
        <mxCell id="P_rBqoSXO_4Jrz354kWq-16" value="User10" style="shape=callout;whiteSpace=wrap;html=1;perimeter=calloutPerimeter;rounded=1;shadow=1;size=10;position=0.5;position2=0.75;base=10;" vertex="1" parent="1">
          <mxGeometry x="-2264" y="-1045" width="40" height="30" as="geometry" />
        </mxCell>
        <mxCell id="P_rBqoSXO_4Jrz354kWq-17" value="User11" style="shape=callout;whiteSpace=wrap;html=1;perimeter=calloutPerimeter;rounded=1;shadow=1;size=10;position=0.5;position2=0.75;base=10;" vertex="1" parent="1">
          <mxGeometry x="-2234" y="-1010" width="40" height="30" as="geometry" />
        </mxCell>
        <mxCell id="P_rBqoSXO_4Jrz354kWq-18" value="User12" style="shape=callout;whiteSpace=wrap;html=1;perimeter=calloutPerimeter;rounded=1;shadow=1;size=10;position=0.5;position2=0.75;base=10;" vertex="1" parent="1">
          <mxGeometry x="-2124" y="-1040" width="40" height="30" as="geometry" />
        </mxCell>
        <mxCell id="P_rBqoSXO_4Jrz354kWq-19" value="User13" style="shape=callout;whiteSpace=wrap;html=1;perimeter=calloutPerimeter;rounded=1;shadow=1;size=10;position=0.5;position2=0.75;base=10;" vertex="1" parent="1">
          <mxGeometry x="-2164" y="-1000" width="40" height="30" as="geometry" />
        </mxCell>
        <mxCell id="P_rBqoSXO_4Jrz354kWq-20" value="" style="ellipse;whiteSpace=wrap;html=1;aspect=fixed;fillColor=#1ba1e2;strokeColor=#006EAF;fontColor=#ffffff;" vertex="1" parent="1">
          <mxGeometry x="-2284" y="-980" width="40" height="40" as="geometry" />
        </mxCell>
        <mxCell id="P_rBqoSXO_4Jrz354kWq-21" value="" style="rounded=1;whiteSpace=wrap;html=1;gradientColor=#ffd966;fillColor=#fff2cc;strokeColor=#d6b656;" vertex="1" parent="1">
          <mxGeometry x="-2467" y="-620" width="220" height="297" as="geometry" />
        </mxCell>
        <mxCell id="P_rBqoSXO_4Jrz354kWq-22" value="&lt;font style=&quot;font-size: 18px&quot;&gt;User 10 Wants to get services from you:&lt;/font&gt;" style="text;html=1;strokeColor=none;fillColor=none;align=left;verticalAlign=top;spacingLeft=4;spacingRight=4;whiteSpace=wrap;overflow=hidden;rotatable=0;points=[[0,0.5],[1,0.5]];portConstraint=eastwest;" vertex="1" parent="1">
          <mxGeometry x="-2452" y="-590" width="190" height="44" as="geometry" />
        </mxCell>
        <mxCell id="P_rBqoSXO_4Jrz354kWq-23" value="Reject" style="text;html=1;strokeColor=#666666;fillColor=#f5f5f5;align=left;verticalAlign=top;spacingLeft=4;spacingRight=4;whiteSpace=wrap;overflow=hidden;rotatable=0;points=[[0,0.5],[1,0.5]];portConstraint=eastwest;rounded=1;shadow=1;fontColor=#333333;" vertex="1" parent="1">
          <mxGeometry x="-2332" y="-520" width="50" height="26" as="geometry" />
        </mxCell>
        <mxCell id="P_rBqoSXO_4Jrz354kWq-24" value="Accept" style="text;html=1;strokeColor=#666666;fillColor=#f5f5f5;align=left;verticalAlign=top;spacingLeft=4;spacingRight=4;whiteSpace=wrap;overflow=hidden;rotatable=0;points=[[0,0.5],[1,0.5]];portConstraint=eastwest;rounded=1;shadow=1;fontColor=#333333;" vertex="1" parent="1">
          <mxGeometry x="-2432" y="-520" width="50" height="26" as="geometry" />
        </mxCell>
        <mxCell id="P_rBqoSXO_4Jrz354kWq-25" value="" style="rounded=1;whiteSpace=wrap;html=1;" vertex="1" parent="1">
          <mxGeometry x="-2359" y="375" width="240" height="290" as="geometry" />
        </mxCell>
        <mxCell id="P_rBqoSXO_4Jrz354kWq-26" value="" style="rounded=1;whiteSpace=wrap;html=1;shadow=0;" vertex="1" parent="1">
          <mxGeometry x="-2344" y="385" width="100" height="120" as="geometry" />
        </mxCell>
        <mxCell id="P_rBqoSXO_4Jrz354kWq-27" value="" style="rounded=1;whiteSpace=wrap;html=1;shadow=1;" vertex="1" parent="1">
          <mxGeometry x="-2232" y="385" width="100" height="260" as="geometry" />
        </mxCell>
        <mxCell id="P_rBqoSXO_4Jrz354kWq-28" value="User10" style="text;html=1;strokeColor=#B09500;fillColor=#e3c800;align=left;verticalAlign=top;spacingLeft=4;spacingRight=4;whiteSpace=wrap;overflow=hidden;rotatable=0;points=[[0,0.5],[1,0.5]];portConstraint=eastwest;rounded=1;shadow=1;fontColor=#000000;" vertex="1" parent="1">
          <mxGeometry x="-2319" y="390" width="50" height="26" as="geometry" />
        </mxCell>
        <mxCell id="P_rBqoSXO_4Jrz354kWq-29" value="User12" style="text;html=1;strokeColor=#006EAF;fillColor=#1ba1e2;align=left;verticalAlign=top;spacingLeft=4;spacingRight=4;whiteSpace=wrap;overflow=hidden;rotatable=0;points=[[0,0.5],[1,0.5]];portConstraint=eastwest;rounded=1;shadow=1;fontColor=#ffffff;" vertex="1" parent="1">
          <mxGeometry x="-2219" y="394.5" width="50" height="26" as="geometry" />
        </mxCell>
        <mxCell id="P_rBqoSXO_4Jrz354kWq-30" value="User13" style="text;html=1;strokeColor=#006EAF;fillColor=#1ba1e2;align=left;verticalAlign=top;spacingLeft=4;spacingRight=4;whiteSpace=wrap;overflow=hidden;rotatable=0;points=[[0,0.5],[1,0.5]];portConstraint=eastwest;rounded=1;shadow=1;fontColor=#ffffff;" vertex="1" parent="1">
          <mxGeometry x="-2222" y="530" width="50" height="26" as="geometry" />
        </mxCell>
        <mxCell id="P_rBqoSXO_4Jrz354kWq-31" value="" style="rounded=1;whiteSpace=wrap;html=1;" vertex="1" parent="1">
          <mxGeometry x="-2089" y="370" width="240" height="290" as="geometry" />
        </mxCell>
        <mxCell id="P_rBqoSXO_4Jrz354kWq-32" value="" style="rounded=1;whiteSpace=wrap;html=1;shadow=1;" vertex="1" parent="1">
          <mxGeometry x="-1962" y="390" width="100" height="250" as="geometry" />
        </mxCell>
        <mxCell id="P_rBqoSXO_4Jrz354kWq-33" value="User12" style="text;html=1;strokeColor=#006EAF;fillColor=#1ba1e2;align=left;verticalAlign=top;spacingLeft=4;spacingRight=4;whiteSpace=wrap;overflow=hidden;rotatable=0;points=[[0,0.5],[1,0.5]];portConstraint=eastwest;rounded=1;shadow=1;fontColor=#ffffff;" vertex="1" parent="1">
          <mxGeometry x="-1948" y="402" width="50" height="26" as="geometry" />
        </mxCell>
        <mxCell id="P_rBqoSXO_4Jrz354kWq-34" value="" style="shape=flexArrow;endArrow=classic;html=1;" edge="1" parent="1">
          <mxGeometry width="50" height="50" relative="1" as="geometry">
            <mxPoint x="-2399" y="260" as="sourcePoint" />
            <mxPoint x="-1809" y="260" as="targetPoint" />
          </mxGeometry>
        </mxCell>
        <mxCell id="P_rBqoSXO_4Jrz354kWq-35" value="Requested Attributes" style="rounded=0;whiteSpace=wrap;html=1;shadow=0;glass=0;sketch=0;" vertex="1" parent="1">
          <mxGeometry x="-2334" y="426" width="80" height="70" as="geometry" />
        </mxCell>
        <mxCell id="P_rBqoSXO_4Jrz354kWq-36" value="&lt;div&gt;Possessed Attributes&lt;/div&gt;" style="rounded=1;whiteSpace=wrap;html=1;shadow=1;strokeWidth=2;" vertex="1" parent="1">
          <mxGeometry x="-2222" y="431" width="80" height="70" as="geometry" />
        </mxCell>
        <mxCell id="P_rBqoSXO_4Jrz354kWq-37" value="&lt;div&gt;Possessed Attributes&lt;/div&gt;" style="rounded=1;whiteSpace=wrap;html=1;shadow=1;strokeWidth=2;" vertex="1" parent="1">
          <mxGeometry x="-2222" y="561" width="80" height="70" as="geometry" />
        </mxCell>
        <mxCell id="P_rBqoSXO_4Jrz354kWq-38" value="&lt;div&gt;Possessed Attributes&lt;/div&gt;" style="rounded=1;whiteSpace=wrap;html=1;shadow=1;strokeWidth=2;" vertex="1" parent="1">
          <mxGeometry x="-1954" y="436" width="80" height="70" as="geometry" />
        </mxCell>
        <mxCell id="P_rBqoSXO_4Jrz354kWq-39" value="" style="rounded=1;whiteSpace=wrap;html=1;" vertex="1" parent="1">
          <mxGeometry x="-2359" y="770" width="240" height="290" as="geometry" />
        </mxCell>
        <mxCell id="P_rBqoSXO_4Jrz354kWq-40" value="" style="rounded=1;whiteSpace=wrap;html=1;shadow=1;" vertex="1" parent="1">
          <mxGeometry x="-2344" y="781.5" width="100" height="260" as="geometry" />
        </mxCell>
        <mxCell id="P_rBqoSXO_4Jrz354kWq-41" value="" style="rounded=1;whiteSpace=wrap;html=1;shadow=1;" vertex="1" parent="1">
          <mxGeometry x="-2232" y="781.5" width="100" height="130" as="geometry" />
        </mxCell>
        <mxCell id="P_rBqoSXO_4Jrz354kWq-42" value="User10" style="text;html=1;strokeColor=#B09500;fillColor=#e3c800;align=left;verticalAlign=top;spacingLeft=4;spacingRight=4;whiteSpace=wrap;overflow=hidden;rotatable=0;points=[[0,0.5],[1,0.5]];portConstraint=eastwest;rounded=1;shadow=1;fontColor=#000000;" vertex="1" parent="1">
          <mxGeometry x="-2333" y="796.5" width="50" height="26" as="geometry" />
        </mxCell>
        <mxCell id="P_rBqoSXO_4Jrz354kWq-43" value="User12" style="text;html=1;strokeColor=#006EAF;fillColor=#1ba1e2;align=left;verticalAlign=top;spacingLeft=4;spacingRight=4;whiteSpace=wrap;overflow=hidden;rotatable=0;points=[[0,0.5],[1,0.5]];portConstraint=eastwest;rounded=1;shadow=1;fontColor=#ffffff;" vertex="1" parent="1">
          <mxGeometry x="-2207" y="792.5" width="50" height="26" as="geometry" />
        </mxCell>
        <mxCell id="P_rBqoSXO_4Jrz354kWq-44" value="" style="rounded=1;whiteSpace=wrap;html=1;" vertex="1" parent="1">
          <mxGeometry x="-2099" y="771.5" width="240" height="290" as="geometry" />
        </mxCell>
        <mxCell id="P_rBqoSXO_4Jrz354kWq-45" value="" style="rounded=1;whiteSpace=wrap;html=1;shadow=1;" vertex="1" parent="1">
          <mxGeometry x="-2084" y="781.5" width="100" height="260" as="geometry" />
        </mxCell>
        <mxCell id="P_rBqoSXO_4Jrz354kWq-46" value="User11" style="text;html=1;strokeColor=#B09500;fillColor=#e3c800;align=left;verticalAlign=top;spacingLeft=4;spacingRight=4;whiteSpace=wrap;overflow=hidden;rotatable=0;points=[[0,0.5],[1,0.5]];portConstraint=eastwest;rounded=1;shadow=1;fontColor=#000000;" vertex="1" parent="1">
          <mxGeometry x="-2074" y="921.5" width="50" height="26" as="geometry" />
        </mxCell>
        <mxCell id="P_rBqoSXO_4Jrz354kWq-47" value="User13" style="text;html=1;strokeColor=#006EAF;fillColor=#1ba1e2;align=left;verticalAlign=top;spacingLeft=4;spacingRight=4;whiteSpace=wrap;overflow=hidden;rotatable=0;points=[[0,0.5],[1,0.5]];portConstraint=eastwest;rounded=1;shadow=1;fontColor=#ffffff;" vertex="1" parent="1">
          <mxGeometry x="-1948" y="522" width="50" height="26" as="geometry" />
        </mxCell>
        <mxCell id="P_rBqoSXO_4Jrz354kWq-48" value="&lt;div&gt;Possessed Attributes&lt;/div&gt;" style="rounded=1;whiteSpace=wrap;html=1;shadow=1;strokeWidth=2;" vertex="1" parent="1">
          <mxGeometry x="-2334" y="957.5" width="80" height="70" as="geometry" />
        </mxCell>
        <mxCell id="P_rBqoSXO_4Jrz354kWq-49" value="&lt;div&gt;Possessed Attributes&lt;/div&gt;" style="rounded=1;whiteSpace=wrap;html=1;shadow=1;strokeWidth=2;" vertex="1" parent="1">
          <mxGeometry x="-2074" y="957.5" width="80" height="70" as="geometry" />
        </mxCell>
        <mxCell id="P_rBqoSXO_4Jrz354kWq-50" value="&lt;div&gt;Possessed Attributes&lt;/div&gt;" style="rounded=1;whiteSpace=wrap;html=1;shadow=1;perimeterSpacing=0;strokeWidth=2;" vertex="1" parent="1">
          <mxGeometry x="-1952" y="556" width="80" height="70" as="geometry" />
        </mxCell>
        <mxCell id="P_rBqoSXO_4Jrz354kWq-51" value="&lt;div&gt;Possessed Attributes&lt;/div&gt;" style="rounded=1;whiteSpace=wrap;html=1;shadow=1;strokeWidth=2;" vertex="1" parent="1">
          <mxGeometry x="-2334" y="829" width="80" height="70" as="geometry" />
        </mxCell>
        <mxCell id="P_rBqoSXO_4Jrz354kWq-52" value="User11" style="text;html=1;strokeColor=#B09500;fillColor=#e3c800;align=left;verticalAlign=top;spacingLeft=4;spacingRight=4;whiteSpace=wrap;overflow=hidden;rotatable=0;points=[[0,0.5],[1,0.5]];portConstraint=eastwest;rounded=1;shadow=1;fontColor=#000000;" vertex="1" parent="1">
          <mxGeometry x="-2334" y="926.5" width="50" height="26" as="geometry" />
        </mxCell>
        <mxCell id="P_rBqoSXO_4Jrz354kWq-53" value="&lt;div&gt;Possessed Attributes&lt;/div&gt;" style="rounded=1;whiteSpace=wrap;html=1;shadow=1;strokeWidth=2;" vertex="1" parent="1">
          <mxGeometry x="-2074" y="837.5" width="80" height="70" as="geometry" />
        </mxCell>
        <mxCell id="P_rBqoSXO_4Jrz354kWq-54" value="User10" style="text;html=1;strokeColor=#B09500;fillColor=#e3c800;align=left;verticalAlign=top;spacingLeft=4;spacingRight=4;whiteSpace=wrap;overflow=hidden;rotatable=0;points=[[0,0.5],[1,0.5]];portConstraint=eastwest;rounded=1;shadow=1;fontColor=#000000;" vertex="1" parent="1">
          <mxGeometry x="-2073" y="805" width="50" height="26" as="geometry" />
        </mxCell>
        <mxCell id="P_rBqoSXO_4Jrz354kWq-55" value="" style="rounded=1;whiteSpace=wrap;html=1;" vertex="1" parent="1">
          <mxGeometry x="-2369" y="1312" width="240" height="290" as="geometry" />
        </mxCell>
        <mxCell id="P_rBqoSXO_4Jrz354kWq-56" value="10 ♥ 12 11 ♥ 13" style="text;html=1;align=left;verticalAlign=top;spacingLeft=4;spacingRight=4;whiteSpace=wrap;overflow=hidden;rotatable=0;points=[[0,0.5],[1,0.5]];portConstraint=eastwest;rounded=1;shadow=0;strokeColor=#000000;" vertex="1" parent="1">
          <mxGeometry x="-2320" y="1502" width="55" height="40" as="geometry" />
        </mxCell>
        <mxCell id="P_rBqoSXO_4Jrz354kWq-57" value="10 ♥ 13 11 ♥ 12" style="text;html=1;align=left;verticalAlign=top;spacingLeft=4;spacingRight=4;whiteSpace=wrap;overflow=hidden;rotatable=0;points=[[0,0.5],[1,0.5]];portConstraint=eastwest;rounded=1;shadow=0;strokeColor=#000000;" vertex="1" parent="1">
          <mxGeometry x="-2228" y="1502" width="53" height="40" as="geometry" />
        </mxCell>
        <mxCell id="P_rBqoSXO_4Jrz354kWq-58" value="&lt;font style=&quot;font-size: 14px;&quot;&gt;☐&lt;/font&gt;" style="text;html=1;strokeColor=none;fillColor=none;align=left;verticalAlign=top;spacingLeft=4;spacingRight=4;whiteSpace=wrap;overflow=hidden;rotatable=0;points=[[0,0.5],[1,0.5]];portConstraint=eastwest;fontSize=14;" vertex="1" parent="1">
          <mxGeometry x="-2303.75" y="1542" width="22.5" height="20" as="geometry" />
        </mxCell>
        <mxCell id="P_rBqoSXO_4Jrz354kWq-59" value="☐" style="text;html=1;strokeColor=none;fillColor=none;align=left;verticalAlign=top;spacingLeft=4;spacingRight=4;whiteSpace=wrap;overflow=hidden;rotatable=0;points=[[0,0.5],[1,0.5]];portConstraint=eastwest;fontSize=16;" vertex="1" parent="1">
          <mxGeometry x="-2211.25" y="1542" width="22.5" height="20" as="geometry" />
        </mxCell>
        <mxCell id="P_rBqoSXO_4Jrz354kWq-60" value="" style="group;" vertex="1" connectable="0" parent="1">
          <mxGeometry x="-2260" y="1507" width="30" height="30" as="geometry" />
        </mxCell>
        <mxCell id="P_rBqoSXO_4Jrz354kWq-61" value="&lt;font color=&quot;#050505&quot;&gt;or&lt;/font&gt;" style="text;html=1;align=left;verticalAlign=top;spacingLeft=4;spacingRight=4;whiteSpace=wrap;overflow=hidden;rotatable=0;points=[[0,0.5],[1,0.5]];portConstraint=eastwest;fontSize=14;fontStyle=1;fillColor=none;fontColor=#F7F7F7;" vertex="1" parent="P_rBqoSXO_4Jrz354kWq-60">
          <mxGeometry width="30" height="19.45945945945946" as="geometry" />
        </mxCell>
        <mxCell id="P_rBqoSXO_4Jrz354kWq-62" value="&lt;div&gt;Submit&lt;/div&gt;" style="rounded=1;whiteSpace=wrap;html=1;shadow=1;strokeWidth=2;" vertex="1" parent="1">
          <mxGeometry x="-2289" y="1570" width="80" height="24.5" as="geometry" />
        </mxCell>
        <mxCell id="P_rBqoSXO_4Jrz354kWq-63" value="" style="endArrow=classic;html=1;fontSize=14;fontColor=#000000;" edge="1" parent="1" source="P_rBqoSXO_4Jrz354kWq-161" target="P_rBqoSXO_4Jrz354kWq-159">
          <mxGeometry width="50" height="50" relative="1" as="geometry">
            <mxPoint x="-2105" y="1218" as="sourcePoint" />
            <mxPoint x="-2055" y="1168" as="targetPoint" />
          </mxGeometry>
        </mxCell>
        <mxCell id="P_rBqoSXO_4Jrz354kWq-64" value="" style="endArrow=classic;html=1;fontSize=14;fontColor=#000000;" edge="1" parent="1" source="P_rBqoSXO_4Jrz354kWq-160" target="P_rBqoSXO_4Jrz354kWq-161">
          <mxGeometry width="50" height="50" relative="1" as="geometry">
            <mxPoint x="-2234.0669521553436" y="1381.5464951071451" as="sourcePoint" />
            <mxPoint x="-2164.668042166056" y="1394.371209932462" as="targetPoint" />
          </mxGeometry>
        </mxCell>
        <mxCell id="P_rBqoSXO_4Jrz354kWq-65" value="" style="curved=1;endArrow=classic;html=1;fontSize=14;fontColor=#000000;" edge="1" parent="1" source="P_rBqoSXO_4Jrz354kWq-162" target="P_rBqoSXO_4Jrz354kWq-159">
          <mxGeometry width="50" height="50" relative="1" as="geometry">
            <mxPoint x="-2215" y="1388" as="sourcePoint" />
            <mxPoint x="-2165" y="1338" as="targetPoint" />
            <Array as="points">
              <mxPoint x="-2265" y="1368" />
            </Array>
          </mxGeometry>
        </mxCell>
        <mxCell id="P_rBqoSXO_4Jrz354kWq-66" value="" style="curved=1;endArrow=classic;html=1;fontSize=14;fontColor=#000000;" edge="1" parent="1" source="P_rBqoSXO_4Jrz354kWq-159" target="P_rBqoSXO_4Jrz354kWq-162">
          <mxGeometry width="50" height="50" relative="1" as="geometry">
            <mxPoint x="-2258.0019461657525" y="1412.4612066227667" as="sourcePoint" />
            <mxPoint x="-2184.8575367697385" y="1380.3829044123686" as="targetPoint" />
            <Array as="points">
              <mxPoint x="-2235" y="1398" />
            </Array>
          </mxGeometry>
        </mxCell>
        <mxCell id="P_rBqoSXO_4Jrz354kWq-67" value="" style="rounded=1;whiteSpace=wrap;html=1;" vertex="1" parent="1">
          <mxGeometry x="-2095" y="1310" width="240" height="290" as="geometry" />
        </mxCell>
        <mxCell id="P_rBqoSXO_4Jrz354kWq-68" value="10 ♥ 12 11 ♥ 13" style="text;html=1;align=left;verticalAlign=top;spacingLeft=4;spacingRight=4;whiteSpace=wrap;overflow=hidden;rotatable=0;points=[[0,0.5],[1,0.5]];portConstraint=eastwest;rounded=1;shadow=0;strokeColor=#000000;" vertex="1" parent="1">
          <mxGeometry x="-2046" y="1500" width="55" height="40" as="geometry" />
        </mxCell>
        <mxCell id="P_rBqoSXO_4Jrz354kWq-69" value="10 ♥ 13 11 ♥ 12" style="text;html=1;align=left;verticalAlign=top;spacingLeft=4;spacingRight=4;whiteSpace=wrap;overflow=hidden;rotatable=0;points=[[0,0.5],[1,0.5]];portConstraint=eastwest;rounded=1;shadow=0;strokeColor=#000000;" vertex="1" parent="1">
          <mxGeometry x="-1954" y="1500" width="53" height="40" as="geometry" />
        </mxCell>
        <mxCell id="P_rBqoSXO_4Jrz354kWq-70" value="&lt;font style=&quot;font-size: 14px;&quot;&gt;☐&lt;/font&gt;" style="text;html=1;strokeColor=none;fillColor=none;align=left;verticalAlign=top;spacingLeft=4;spacingRight=4;whiteSpace=wrap;overflow=hidden;rotatable=0;points=[[0,0.5],[1,0.5]];portConstraint=eastwest;fontSize=14;" vertex="1" parent="1">
          <mxGeometry x="-2029.75" y="1540" width="22.5" height="20" as="geometry" />
        </mxCell>
        <mxCell id="P_rBqoSXO_4Jrz354kWq-71" value="☐" style="text;html=1;strokeColor=none;fillColor=none;align=left;verticalAlign=top;spacingLeft=4;spacingRight=4;whiteSpace=wrap;overflow=hidden;rotatable=0;points=[[0,0.5],[1,0.5]];portConstraint=eastwest;fontSize=16;" vertex="1" parent="1">
          <mxGeometry x="-1937.25" y="1540" width="22.5" height="20" as="geometry" />
        </mxCell>
        <mxCell id="P_rBqoSXO_4Jrz354kWq-72" value="&lt;font style=&quot;font-size: 11px;&quot;&gt;&lt;b style=&quot;font-size: 11px;&quot;&gt;✓&lt;/b&gt;&lt;/font&gt;" style="text;html=1;strokeColor=none;fillColor=none;align=left;verticalAlign=top;spacingLeft=4;spacingRight=4;whiteSpace=wrap;overflow=hidden;rotatable=0;points=[[0,0.5],[1,0.5]];portConstraint=eastwest;fontSize=11;" vertex="1" parent="1">
          <mxGeometry x="-1935.25" y="1541" width="22.5" height="20" as="geometry" />
        </mxCell>
        <mxCell id="P_rBqoSXO_4Jrz354kWq-73" value="" style="group;" vertex="1" connectable="0" parent="1">
          <mxGeometry x="-1986" y="1505" width="30" height="30" as="geometry" />
        </mxCell>
        <mxCell id="P_rBqoSXO_4Jrz354kWq-74" value="&lt;font color=&quot;#050505&quot;&gt;or&lt;/font&gt;" style="text;html=1;align=left;verticalAlign=top;spacingLeft=4;spacingRight=4;whiteSpace=wrap;overflow=hidden;rotatable=0;points=[[0,0.5],[1,0.5]];portConstraint=eastwest;fontSize=14;fontStyle=1;fillColor=none;fontColor=#F7F7F7;" vertex="1" parent="P_rBqoSXO_4Jrz354kWq-73">
          <mxGeometry width="30" height="19.45945945945946" as="geometry" />
        </mxCell>
        <mxCell id="P_rBqoSXO_4Jrz354kWq-75" value="&lt;div&gt;Submit&lt;/div&gt;" style="rounded=1;whiteSpace=wrap;html=1;shadow=1;strokeWidth=2;" vertex="1" parent="1">
          <mxGeometry x="-2015" y="1568" width="80" height="24.5" as="geometry" />
        </mxCell>
        <mxCell id="P_rBqoSXO_4Jrz354kWq-76" value="" style="shape=flexArrow;endArrow=classic;startArrow=classic;html=1;fontSize=14;fontColor=#000000;fillColor=#FF0000;strokeColor=none;" edge="1" parent="1" source="P_rBqoSXO_4Jrz354kWq-157" target="P_rBqoSXO_4Jrz354kWq-156">
          <mxGeometry width="100" height="100" relative="1" as="geometry">
            <mxPoint x="-2025" y="1528" as="sourcePoint" />
            <mxPoint x="-1925" y="1428" as="targetPoint" />
          </mxGeometry>
        </mxCell>
        <mxCell id="P_rBqoSXO_4Jrz354kWq-77" value="" style="shape=flexArrow;endArrow=classic;startArrow=classic;html=1;fontSize=14;fontColor=#000000;fillColor=#FF0000;" edge="1" parent="1" source="P_rBqoSXO_4Jrz354kWq-158" target="P_rBqoSXO_4Jrz354kWq-155">
          <mxGeometry width="100" height="100" relative="1" as="geometry">
            <mxPoint x="-2012.8710776676116" y="1412.5535702769553" as="sourcePoint" />
            <mxPoint x="-1909.148706895925" y="1364.4038347202804" as="targetPoint" />
          </mxGeometry>
        </mxCell>
        <mxCell id="P_rBqoSXO_4Jrz354kWq-78" value="&lt;div style=&quot;font-size: 22px&quot;&gt;&lt;font style=&quot;font-size: 22px&quot;&gt;Correct!&lt;/font&gt;&lt;/div&gt;&lt;div style=&quot;font-size: 22px&quot;&gt;&lt;font style=&quot;font-size: 22px&quot;&gt;You earned 10 coins&lt;/font&gt;&lt;/div&gt;&lt;div style=&quot;font-size: 22px&quot;&gt;&lt;font style=&quot;font-size: 22px&quot;&gt;User10, 11, 12 ,13 now are under your supervision.&lt;br&gt;&lt;/font&gt;&lt;/div&gt;&lt;div&gt;&lt;br&gt;&lt;/div&gt;&lt;div&gt;&lt;br&gt;&lt;/div&gt;" style="rounded=1;whiteSpace=wrap;html=1;" vertex="1" parent="1">
          <mxGeometry x="-2492" y="1775" width="240" height="290" as="geometry" />
        </mxCell>
        <mxCell id="P_rBqoSXO_4Jrz354kWq-79" value="" style="rounded=1;whiteSpace=wrap;html=1;" vertex="1" parent="1">
          <mxGeometry x="-2191" y="1779" width="240" height="290" as="geometry" />
        </mxCell>
        <mxCell id="P_rBqoSXO_4Jrz354kWq-80" value="VIP" style="ellipse;whiteSpace=wrap;html=1;aspect=fixed;fillColor=#f8cecc;strokeColor=#b85450;" vertex="1" parent="1">
          <mxGeometry x="-2132" y="1974" width="40" height="40" as="geometry" />
        </mxCell>
        <mxCell id="P_rBqoSXO_4Jrz354kWq-81" value="12" style="ellipse;whiteSpace=wrap;html=1;aspect=fixed;fillColor=#1ba1e2;strokeColor=#006EAF;fontColor=#ffffff;" vertex="1" parent="1">
          <mxGeometry x="-2005" y="1805" width="40" height="40" as="geometry" />
        </mxCell>
        <mxCell id="P_rBqoSXO_4Jrz354kWq-82" value="10" style="ellipse;whiteSpace=wrap;html=1;aspect=fixed;fillColor=#e3c800;strokeColor=#B09500;fontColor=#000000;" vertex="1" parent="1">
          <mxGeometry x="-2132" y="1795" width="40" height="40" as="geometry" />
        </mxCell>
        <mxCell id="P_rBqoSXO_4Jrz354kWq-83" value="11" style="ellipse;whiteSpace=wrap;html=1;aspect=fixed;fillColor=#e3c800;strokeColor=#B09500;fontColor=#000000;" vertex="1" parent="1">
          <mxGeometry x="-2097" y="1845" width="40" height="40" as="geometry" />
        </mxCell>
        <mxCell id="P_rBqoSXO_4Jrz354kWq-84" value="" style="ellipse;whiteSpace=wrap;html=1;aspect=fixed;fillColor=#e51400;strokeColor=#B20000;fontColor=#ffffff;" vertex="1" parent="1">
          <mxGeometry x="-2061" y="1789" width="40" height="40" as="geometry" />
        </mxCell>
        <mxCell id="P_rBqoSXO_4Jrz354kWq-85" value="" style="ellipse;whiteSpace=wrap;html=1;aspect=fixed;fillColor=#fff2cc;strokeColor=#d6b656;" vertex="1" parent="1">
          <mxGeometry x="-2091" y="2014" width="40" height="40" as="geometry" />
        </mxCell>
        <mxCell id="P_rBqoSXO_4Jrz354kWq-86" value="" style="ellipse;whiteSpace=wrap;html=1;aspect=fixed;fillColor=#fff2cc;strokeColor=#d6b656;" vertex="1" parent="1">
          <mxGeometry x="-2145" y="2021.5" width="40" height="40" as="geometry" />
        </mxCell>
        <mxCell id="P_rBqoSXO_4Jrz354kWq-87" value="" style="endArrow=none;html=1;endFill=0;" edge="1" parent="1" source="P_rBqoSXO_4Jrz354kWq-80" target="P_rBqoSXO_4Jrz354kWq-86">
          <mxGeometry width="50" height="50" relative="1" as="geometry">
            <mxPoint x="-2081" y="1969" as="sourcePoint" />
            <mxPoint x="-2031" y="1919" as="targetPoint" />
          </mxGeometry>
        </mxCell>
        <mxCell id="P_rBqoSXO_4Jrz354kWq-88" value="" style="endArrow=none;html=1;endFill=0;" edge="1" parent="1" source="P_rBqoSXO_4Jrz354kWq-80" target="P_rBqoSXO_4Jrz354kWq-85">
          <mxGeometry width="50" height="50" relative="1" as="geometry">
            <mxPoint x="-2057.946287116472" y="1991.7549752144744" as="sourcePoint" />
            <mxPoint x="-2074.0797259732235" y="2035.23541081201" as="targetPoint" />
          </mxGeometry>
        </mxCell>
        <mxCell id="P_rBqoSXO_4Jrz354kWq-89" value="" style="ellipse;whiteSpace=wrap;html=1;aspect=fixed;fillColor=#dae8fc;strokeColor=#6c8ebf;" vertex="1" parent="1">
          <mxGeometry x="-2172" y="1932" width="40" height="40" as="geometry" />
        </mxCell>
        <mxCell id="P_rBqoSXO_4Jrz354kWq-90" value="" style="endArrow=none;html=1;endFill=0;" edge="1" parent="1" source="P_rBqoSXO_4Jrz354kWq-80" target="P_rBqoSXO_4Jrz354kWq-89">
          <mxGeometry width="50" height="50" relative="1" as="geometry">
            <mxPoint x="-2148.7794407407996" y="1943.0049912282095" as="sourcePoint" />
            <mxPoint x="-2111" y="1880.58" as="targetPoint" />
          </mxGeometry>
        </mxCell>
        <mxCell id="P_rBqoSXO_4Jrz354kWq-91" value="" style="endArrow=none;html=1;endFill=0;" edge="1" parent="1" source="P_rBqoSXO_4Jrz354kWq-80" target="P_rBqoSXO_4Jrz354kWq-92">
          <mxGeometry width="50" height="50" relative="1" as="geometry">
            <mxPoint x="-2133" y="1943" as="sourcePoint" />
            <mxPoint x="-2154.0797259732235" y="1996.81541081201" as="targetPoint" />
          </mxGeometry>
        </mxCell>
        <mxCell id="P_rBqoSXO_4Jrz354kWq-92" value="" style="ellipse;whiteSpace=wrap;html=1;aspect=fixed;fillColor=#dae8fc;strokeColor=#6c8ebf;" vertex="1" parent="1">
          <mxGeometry x="-2181" y="1983" width="40" height="40" as="geometry" />
        </mxCell>
        <mxCell id="P_rBqoSXO_4Jrz354kWq-93" value="13" style="ellipse;whiteSpace=wrap;html=1;aspect=fixed;fillColor=#1ba1e2;strokeColor=#006EAF;fontColor=#ffffff;" vertex="1" parent="1">
          <mxGeometry x="-2030" y="1860" width="40" height="40" as="geometry" />
        </mxCell>
        <mxCell id="P_rBqoSXO_4Jrz354kWq-94" value="" style="ellipse;whiteSpace=wrap;html=1;aspect=fixed;fillColor=#1ba1e2;strokeColor=#006EAF;fontColor=#ffffff;" vertex="1" parent="1">
          <mxGeometry x="-2181" y="1805" width="40" height="40" as="geometry" />
        </mxCell>
        <mxCell id="P_rBqoSXO_4Jrz354kWq-95" value="" style="endArrow=none;html=1;fontSize=14;fontColor=#000000;fillColor=#FF0000;" edge="1" parent="1" source="P_rBqoSXO_4Jrz354kWq-82" target="P_rBqoSXO_4Jrz354kWq-84">
          <mxGeometry width="50" height="50" relative="1" as="geometry">
            <mxPoint x="-2122" y="1875" as="sourcePoint" />
            <mxPoint x="-2072" y="1825" as="targetPoint" />
          </mxGeometry>
        </mxCell>
        <mxCell id="P_rBqoSXO_4Jrz354kWq-96" value="" style="endArrow=none;html=1;fontSize=14;fontColor=#000000;fillColor=#FF0000;" edge="1" parent="1" source="P_rBqoSXO_4Jrz354kWq-83" target="P_rBqoSXO_4Jrz354kWq-84">
          <mxGeometry width="50" height="50" relative="1" as="geometry">
            <mxPoint x="-2081" y="1819" as="sourcePoint" />
            <mxPoint x="-2051" y="1819" as="targetPoint" />
          </mxGeometry>
        </mxCell>
        <mxCell id="P_rBqoSXO_4Jrz354kWq-97" value="" style="endArrow=none;html=1;fontSize=14;fontColor=#000000;fillColor=#FF0000;" edge="1" parent="1" source="P_rBqoSXO_4Jrz354kWq-93" target="P_rBqoSXO_4Jrz354kWq-84">
          <mxGeometry width="50" height="50" relative="1" as="geometry">
            <mxPoint x="-2071" y="1829" as="sourcePoint" />
            <mxPoint x="-2041" y="1829" as="targetPoint" />
          </mxGeometry>
        </mxCell>
        <mxCell id="P_rBqoSXO_4Jrz354kWq-98" value="" style="endArrow=none;html=1;fontSize=14;fontColor=#000000;fillColor=#FF0000;" edge="1" parent="1" source="P_rBqoSXO_4Jrz354kWq-81" target="P_rBqoSXO_4Jrz354kWq-84">
          <mxGeometry width="50" height="50" relative="1" as="geometry">
            <mxPoint x="-2061" y="1839" as="sourcePoint" />
            <mxPoint x="-2031" y="1839" as="targetPoint" />
          </mxGeometry>
        </mxCell>
        <mxCell id="P_rBqoSXO_4Jrz354kWq-99" value="" style="ellipse;whiteSpace=wrap;html=1;aspect=fixed;fillColor=#1ba1e2;strokeColor=#006EAF;fontColor=#ffffff;" vertex="1" parent="1">
          <mxGeometry x="-2005" y="1983" width="40" height="40" as="geometry" />
        </mxCell>
        <mxCell id="P_rBqoSXO_4Jrz354kWq-100" value="" style="ellipse;whiteSpace=wrap;html=1;aspect=fixed;fillColor=#1ba1e2;strokeColor=#006EAF;fontColor=#ffffff;" vertex="1" parent="1">
          <mxGeometry x="-2075" y="1890" width="40" height="40" as="geometry" />
        </mxCell>
        <mxCell id="P_rBqoSXO_4Jrz354kWq-101" value="" style="ellipse;whiteSpace=wrap;html=1;aspect=fixed;fillColor=#1ba1e2;strokeColor=#006EAF;fontColor=#ffffff;" vertex="1" parent="1">
          <mxGeometry x="-2017" y="1925" width="40" height="40" as="geometry" />
        </mxCell>
        <mxCell id="P_rBqoSXO_4Jrz354kWq-102" value="" style="ellipse;whiteSpace=wrap;html=1;aspect=fixed;fillColor=#e3c800;strokeColor=#B09500;fontColor=#000000;" vertex="1" parent="1">
          <mxGeometry x="-2070" y="1955" width="40" height="40" as="geometry" />
        </mxCell>
        <mxCell id="P_rBqoSXO_4Jrz354kWq-103" value="" style="ellipse;whiteSpace=wrap;html=1;aspect=fixed;fillColor=#e3c800;strokeColor=#B09500;fontColor=#000000;" vertex="1" parent="1">
          <mxGeometry x="-2122" y="1915" width="40" height="40" as="geometry" />
        </mxCell>
        <mxCell id="P_rBqoSXO_4Jrz354kWq-104" value="" style="ellipse;whiteSpace=wrap;html=1;aspect=fixed;fillColor=#e3c800;strokeColor=#B09500;fontColor=#000000;" vertex="1" parent="1">
          <mxGeometry x="-2172" y="1855" width="40" height="40" as="geometry" />
        </mxCell>
        <mxCell id="P_rBqoSXO_4Jrz354kWq-105" value="" style="rounded=1;whiteSpace=wrap;html=1;fillColor=#fad9d5;strokeColor=#ae4132;" vertex="1" parent="1">
          <mxGeometry x="-1977" y="1740" width="220" height="150" as="geometry" />
        </mxCell>
        <mxCell id="P_rBqoSXO_4Jrz354kWq-106" value="&lt;font style=&quot;font-size: 18px&quot; class=&quot;&quot;&gt;VIP&amp;nbsp; Wants to get Send message to you:&lt;/font&gt;" style="text;html=1;strokeColor=none;fillColor=none;align=left;verticalAlign=top;spacingLeft=4;spacingRight=4;whiteSpace=wrap;overflow=hidden;rotatable=0;points=[[0,0.5],[1,0.5]];portConstraint=eastwest;" vertex="1" parent="1">
          <mxGeometry x="-1957" y="1766" width="190" height="44" as="geometry" />
        </mxCell>
        <mxCell id="P_rBqoSXO_4Jrz354kWq-107" value="Reject" style="text;html=1;strokeColor=#666666;fillColor=#f5f5f5;align=left;verticalAlign=top;spacingLeft=4;spacingRight=4;whiteSpace=wrap;overflow=hidden;rotatable=0;points=[[0,0.5],[1,0.5]];portConstraint=eastwest;rounded=1;shadow=1;fontColor=#333333;" vertex="1" parent="1">
          <mxGeometry x="-1837" y="1836" width="50" height="26" as="geometry" />
        </mxCell>
        <mxCell id="P_rBqoSXO_4Jrz354kWq-108" value="Accept" style="text;html=1;strokeColor=#666666;fillColor=#f5f5f5;align=left;verticalAlign=top;spacingLeft=4;spacingRight=4;whiteSpace=wrap;overflow=hidden;rotatable=0;points=[[0,0.5],[1,0.5]];portConstraint=eastwest;rounded=1;shadow=1;fontColor=#333333;" vertex="1" parent="1">
          <mxGeometry x="-1937" y="1836" width="50" height="26" as="geometry" />
        </mxCell>
        <mxCell id="P_rBqoSXO_4Jrz354kWq-109" value="" style="rounded=1;whiteSpace=wrap;html=1;" vertex="1" parent="1">
          <mxGeometry x="-1990" y="1900" width="220" height="150" as="geometry" />
        </mxCell>
        <mxCell id="P_rBqoSXO_4Jrz354kWq-110" value="Send" style="text;html=1;strokeColor=#666666;fillColor=#f5f5f5;align=left;verticalAlign=top;spacingLeft=4;spacingRight=4;whiteSpace=wrap;overflow=hidden;rotatable=0;points=[[0,0.5],[1,0.5]];portConstraint=eastwest;rounded=1;shadow=1;fontColor=#333333;" vertex="1" parent="1">
          <mxGeometry x="-1830" y="2016" width="45" height="26" as="geometry" />
        </mxCell>
        <mxCell id="P_rBqoSXO_4Jrz354kWq-111" value="Yes" style="text;html=1;strokeColor=#b85450;fillColor=#f8cecc;align=left;verticalAlign=top;spacingLeft=4;spacingRight=4;whiteSpace=wrap;overflow=hidden;rotatable=0;points=[[0,0.5],[1,0.5]];portConstraint=eastwest;" vertex="1" parent="1">
          <mxGeometry x="-1975" y="2017" width="140" height="25" as="geometry" />
        </mxCell>
        <mxCell id="P_rBqoSXO_4Jrz354kWq-112" value="" style="text;html=1;align=left;verticalAlign=top;spacingLeft=4;spacingRight=4;whiteSpace=wrap;overflow=hidden;rotatable=0;points=[[0,0.5],[1,0.5]];portConstraint=eastwest;gradientColor=#b3b3b3;fillColor=#f5f5f5;strokeColor=#666666;" vertex="1" parent="1">
          <mxGeometry x="-1975" y="1916" width="190" height="91" as="geometry" />
        </mxCell>
        <mxCell id="P_rBqoSXO_4Jrz354kWq-113" value="VIP: would you send me you users profile data? I will send you 50 coins for that." style="text;html=1;strokeColor=none;fillColor=none;align=left;verticalAlign=top;spacingLeft=4;spacingRight=4;whiteSpace=wrap;overflow=hidden;rotatable=0;points=[[0,0.5],[1,0.5]];portConstraint=eastwest;fontSize=9;" vertex="1" parent="1">
          <mxGeometry x="-1915" y="1916" width="130" height="44" as="geometry" />
        </mxCell>
        <mxCell id="P_rBqoSXO_4Jrz354kWq-114" value="You: Yes" style="text;html=1;strokeColor=none;fillColor=none;align=left;verticalAlign=top;spacingLeft=4;spacingRight=4;whiteSpace=wrap;overflow=hidden;rotatable=0;points=[[0,0.5],[1,0.5]];portConstraint=eastwest;fontSize=9;" vertex="1" parent="1">
          <mxGeometry x="-1970" y="1960" width="130" height="44" as="geometry" />
        </mxCell>
        <mxCell id="P_rBqoSXO_4Jrz354kWq-115" value="&lt;font style=&quot;font-size: 15px;&quot;&gt;☐&lt;/font&gt;" style="text;html=1;strokeColor=none;fillColor=none;align=left;verticalAlign=top;spacingLeft=4;spacingRight=4;whiteSpace=wrap;overflow=hidden;rotatable=0;points=[[0,0.5],[1,0.5]];portConstraint=eastwest;fontSize=15;" vertex="1" parent="1">
          <mxGeometry x="-2171.5" y="531" width="22.5" height="20" as="geometry" />
        </mxCell>
        <mxCell id="P_rBqoSXO_4Jrz354kWq-116" value="" style="group;fontSize=18;fontStyle=0" vertex="1" connectable="0" parent="1">
          <mxGeometry x="-2169" y="395" width="30" height="30" as="geometry" />
        </mxCell>
        <mxCell id="P_rBqoSXO_4Jrz354kWq-117" value="☐" style="text;html=1;strokeColor=none;fillColor=none;align=left;verticalAlign=top;spacingLeft=4;spacingRight=4;whiteSpace=wrap;overflow=hidden;rotatable=0;points=[[0,0.5],[1,0.5]];portConstraint=eastwest;fontSize=16;" vertex="1" parent="P_rBqoSXO_4Jrz354kWq-116">
          <mxGeometry width="27.551020408163264" height="28.571428571428573" as="geometry" />
        </mxCell>
        <mxCell id="P_rBqoSXO_4Jrz354kWq-118" value="&lt;font style=&quot;font-size: 14px;&quot;&gt;&lt;b style=&quot;font-size: 14px;&quot;&gt;✓&lt;/b&gt;&lt;/font&gt;" style="text;html=1;strokeColor=none;fillColor=none;align=left;verticalAlign=top;spacingLeft=4;spacingRight=4;whiteSpace=wrap;overflow=hidden;rotatable=0;points=[[0,0.5],[1,0.5]];portConstraint=eastwest;fontSize=14;" vertex="1" parent="P_rBqoSXO_4Jrz354kWq-116">
          <mxGeometry x="2.4489795918367347" y="1.4285714285714286" width="27.551020408163264" height="28.571428571428573" as="geometry" />
        </mxCell>
        <mxCell id="P_rBqoSXO_4Jrz354kWq-119" value="&lt;font style=&quot;font-size: 14px;&quot;&gt;☐&lt;/font&gt;" style="text;html=1;strokeColor=none;fillColor=none;align=left;verticalAlign=top;spacingLeft=4;spacingRight=4;whiteSpace=wrap;overflow=hidden;rotatable=0;points=[[0,0.5],[1,0.5]];portConstraint=eastwest;fontSize=14;" vertex="1" parent="1">
          <mxGeometry x="-2283" y="798.5" width="22.5" height="20" as="geometry" />
        </mxCell>
        <mxCell id="P_rBqoSXO_4Jrz354kWq-120" value="&lt;div&gt;Submit&lt;/div&gt;" style="rounded=1;whiteSpace=wrap;html=1;shadow=1;strokeWidth=2;" vertex="1" parent="1">
          <mxGeometry x="-1962" y="1022.5" width="80" height="24.5" as="geometry" />
        </mxCell>
        <mxCell id="P_rBqoSXO_4Jrz354kWq-121" value="&lt;div&gt;Submit&lt;/div&gt;" style="rounded=1;whiteSpace=wrap;html=1;shadow=1;strokeWidth=2;" vertex="1" parent="1">
          <mxGeometry x="-2222" y="1022.5" width="80" height="24.5" as="geometry" />
        </mxCell>
        <mxCell id="P_rBqoSXO_4Jrz354kWq-122" value="&lt;div&gt;Submit&lt;/div&gt;" style="rounded=1;whiteSpace=wrap;html=1;shadow=1;strokeWidth=2;" vertex="1" parent="1">
          <mxGeometry x="-2330.25" y="620.5" width="80" height="24.5" as="geometry" />
        </mxCell>
        <mxCell id="P_rBqoSXO_4Jrz354kWq-123" value="&lt;div&gt;Submit&lt;/div&gt;" style="rounded=1;whiteSpace=wrap;html=1;shadow=1;strokeWidth=2;" vertex="1" parent="1">
          <mxGeometry x="-2065" y="620" width="80" height="24.5" as="geometry" />
        </mxCell>
        <mxCell id="P_rBqoSXO_4Jrz354kWq-124" value="" style="endArrow=classic;html=1;fontSize=14;fontColor=#000000;" edge="1" parent="1" source="P_rBqoSXO_4Jrz354kWq-125" target="P_rBqoSXO_4Jrz354kWq-127">
          <mxGeometry width="50" height="50" relative="1" as="geometry">
            <mxPoint x="-2204" y="435" as="sourcePoint" />
            <mxPoint x="-2154" y="385" as="targetPoint" />
          </mxGeometry>
        </mxCell>
        <mxCell id="P_rBqoSXO_4Jrz354kWq-125" value="10" style="ellipse;whiteSpace=wrap;html=1;aspect=fixed;fillColor=#e3c800;strokeColor=#B09500;fontColor=#000000;" vertex="1" parent="1">
          <mxGeometry x="-2342" y="556" width="28" height="28" as="geometry" />
        </mxCell>
        <mxCell id="P_rBqoSXO_4Jrz354kWq-126" value="13" style="ellipse;whiteSpace=wrap;html=1;aspect=fixed;fillColor=#1ba1e2;strokeColor=#006EAF;fontColor=#ffffff;" vertex="1" parent="1">
          <mxGeometry x="-2278.1099999999997" y="577.0699999999999" width="27.86" height="27.86" as="geometry" />
        </mxCell>
        <mxCell id="P_rBqoSXO_4Jrz354kWq-127" value="12" style="ellipse;whiteSpace=wrap;html=1;aspect=fixed;fillColor=#1ba1e2;strokeColor=#006EAF;fontColor=#ffffff;" vertex="1" parent="1">
          <mxGeometry x="-2279" y="528" width="28.75" height="28.75" as="geometry" />
        </mxCell>
        <mxCell id="P_rBqoSXO_4Jrz354kWq-128" value="Requested Attributes" style="rounded=0;whiteSpace=wrap;html=1;shadow=0;glass=0;sketch=0;" vertex="1" parent="1">
          <mxGeometry x="-2065" y="431" width="80" height="70" as="geometry" />
        </mxCell>
        <mxCell id="P_rBqoSXO_4Jrz354kWq-129" value="" style="rounded=1;whiteSpace=wrap;html=1;shadow=0;" vertex="1" parent="1">
          <mxGeometry x="-2075" y="390" width="100" height="120" as="geometry" />
        </mxCell>
        <mxCell id="P_rBqoSXO_4Jrz354kWq-130" value="User11" style="text;html=1;strokeColor=#B09500;fillColor=#e3c800;align=left;verticalAlign=top;spacingLeft=4;spacingRight=4;whiteSpace=wrap;overflow=hidden;rotatable=0;points=[[0,0.5],[1,0.5]];portConstraint=eastwest;rounded=1;shadow=1;fontColor=#000000;" vertex="1" parent="1">
          <mxGeometry x="-2050" y="395" width="50" height="26" as="geometry" />
        </mxCell>
        <mxCell id="P_rBqoSXO_4Jrz354kWq-131" value="Requested Attributes" style="rounded=0;whiteSpace=wrap;html=1;shadow=0;glass=0;sketch=0;" vertex="1" parent="1">
          <mxGeometry x="-2065" y="432.5" width="80" height="70" as="geometry" />
        </mxCell>
        <mxCell id="P_rBqoSXO_4Jrz354kWq-132" value="" style="endArrow=classic;html=1;fontSize=14;fontColor=#000000;" edge="1" parent="1" source="P_rBqoSXO_4Jrz354kWq-133" target="P_rBqoSXO_4Jrz354kWq-135">
          <mxGeometry width="50" height="50" relative="1" as="geometry">
            <mxPoint x="-1928.75" y="429" as="sourcePoint" />
            <mxPoint x="-1878.75" y="379" as="targetPoint" />
          </mxGeometry>
        </mxCell>
        <mxCell id="P_rBqoSXO_4Jrz354kWq-133" value="11" style="ellipse;whiteSpace=wrap;html=1;aspect=fixed;fillColor=#e3c800;strokeColor=#B09500;fontColor=#000000;" vertex="1" parent="1">
          <mxGeometry x="-2066.75" y="550" width="28" height="28" as="geometry" />
        </mxCell>
        <mxCell id="P_rBqoSXO_4Jrz354kWq-134" value="13" style="ellipse;whiteSpace=wrap;html=1;aspect=fixed;fillColor=#1ba1e2;strokeColor=#006EAF;fontColor=#ffffff;" vertex="1" parent="1">
          <mxGeometry x="-2002.8599999999997" y="571.0699999999999" width="27.86" height="27.86" as="geometry" />
        </mxCell>
        <mxCell id="P_rBqoSXO_4Jrz354kWq-135" value="12" style="ellipse;whiteSpace=wrap;html=1;aspect=fixed;fillColor=#1ba1e2;strokeColor=#006EAF;fontColor=#ffffff;" vertex="1" parent="1">
          <mxGeometry x="-2003.75" y="522" width="28.75" height="28.75" as="geometry" />
        </mxCell>
        <mxCell id="P_rBqoSXO_4Jrz354kWq-136" value="&lt;font style=&quot;font-size: 14px;&quot;&gt;☐&lt;/font&gt;" style="text;html=1;strokeColor=none;fillColor=none;align=left;verticalAlign=top;spacingLeft=4;spacingRight=4;whiteSpace=wrap;overflow=hidden;rotatable=0;points=[[0,0.5],[1,0.5]];portConstraint=eastwest;fontSize=14;" vertex="1" parent="1">
          <mxGeometry x="-1894.5" y="519" width="22.5" height="20" as="geometry" />
        </mxCell>
        <mxCell id="P_rBqoSXO_4Jrz354kWq-137" value="" style="group" vertex="1" connectable="0" parent="1">
          <mxGeometry x="-1895.5" y="399" width="24.5" height="21" as="geometry" />
        </mxCell>
        <mxCell id="P_rBqoSXO_4Jrz354kWq-138" value="☐" style="text;html=1;strokeColor=none;fillColor=none;align=left;verticalAlign=top;spacingLeft=4;spacingRight=4;whiteSpace=wrap;overflow=hidden;rotatable=0;points=[[0,0.5],[1,0.5]];portConstraint=eastwest;fontSize=16;" vertex="1" parent="P_rBqoSXO_4Jrz354kWq-137">
          <mxGeometry width="22.5" height="20" as="geometry" />
        </mxCell>
        <mxCell id="P_rBqoSXO_4Jrz354kWq-139" value="&lt;font style=&quot;font-size: 11px;&quot;&gt;&lt;b style=&quot;font-size: 11px;&quot;&gt;✓&lt;/b&gt;&lt;/font&gt;" style="text;html=1;strokeColor=none;fillColor=none;align=left;verticalAlign=top;spacingLeft=4;spacingRight=4;whiteSpace=wrap;overflow=hidden;rotatable=0;points=[[0,0.5],[1,0.5]];portConstraint=eastwest;fontSize=11;" vertex="1" parent="P_rBqoSXO_4Jrz354kWq-137">
          <mxGeometry x="2" y="1" width="22.5" height="20" as="geometry" />
        </mxCell>
        <mxCell id="P_rBqoSXO_4Jrz354kWq-140" value="" style="endArrow=classic;html=1;fontSize=14;fontColor=#000000;" edge="1" parent="1" source="P_rBqoSXO_4Jrz354kWq-142" target="P_rBqoSXO_4Jrz354kWq-143">
          <mxGeometry width="50" height="50" relative="1" as="geometry">
            <mxPoint x="-2084" y="836.5" as="sourcePoint" />
            <mxPoint x="-2169" y="981.5" as="targetPoint" />
          </mxGeometry>
        </mxCell>
        <mxCell id="P_rBqoSXO_4Jrz354kWq-141" value="10" style="ellipse;whiteSpace=wrap;html=1;aspect=fixed;fillColor=#e3c800;strokeColor=#B09500;fontColor=#000000;" vertex="1" parent="1">
          <mxGeometry x="-2222" y="930.5" width="28" height="28" as="geometry" />
        </mxCell>
        <mxCell id="P_rBqoSXO_4Jrz354kWq-142" value="12" style="ellipse;whiteSpace=wrap;html=1;aspect=fixed;fillColor=#1ba1e2;strokeColor=#006EAF;fontColor=#ffffff;" vertex="1" parent="1">
          <mxGeometry x="-2170.75" y="952.13" width="28.75" height="28.75" as="geometry" />
        </mxCell>
        <mxCell id="P_rBqoSXO_4Jrz354kWq-143" value="11" style="ellipse;whiteSpace=wrap;html=1;aspect=fixed;fillColor=#e3c800;strokeColor=#B09500;fontColor=#000000;" vertex="1" parent="1">
          <mxGeometry x="-2222" y="973.4300000000001" width="28" height="28" as="geometry" />
        </mxCell>
        <mxCell id="P_rBqoSXO_4Jrz354kWq-144" value="" style="group" vertex="1" connectable="0" parent="1">
          <mxGeometry x="-2279" y="931.5" width="24.5" height="21" as="geometry" />
        </mxCell>
        <mxCell id="P_rBqoSXO_4Jrz354kWq-145" value="☐" style="text;html=1;strokeColor=none;fillColor=none;align=left;verticalAlign=top;spacingLeft=4;spacingRight=4;whiteSpace=wrap;overflow=hidden;rotatable=0;points=[[0,0.5],[1,0.5]];portConstraint=eastwest;fontSize=16;" vertex="1" parent="P_rBqoSXO_4Jrz354kWq-144">
          <mxGeometry width="22.5" height="20" as="geometry" />
        </mxCell>
        <mxCell id="P_rBqoSXO_4Jrz354kWq-146" value="&lt;font style=&quot;font-size: 11px;&quot;&gt;&lt;b style=&quot;font-size: 11px;&quot;&gt;✓&lt;/b&gt;&lt;/font&gt;" style="text;html=1;strokeColor=none;fillColor=none;align=left;verticalAlign=top;spacingLeft=4;spacingRight=4;whiteSpace=wrap;overflow=hidden;rotatable=0;points=[[0,0.5],[1,0.5]];portConstraint=eastwest;fontSize=11;" vertex="1" parent="P_rBqoSXO_4Jrz354kWq-144">
          <mxGeometry x="2" y="1" width="22.5" height="20" as="geometry" />
        </mxCell>
        <mxCell id="P_rBqoSXO_4Jrz354kWq-147" value="Requested Attributes" style="rounded=0;whiteSpace=wrap;html=1;shadow=0;" vertex="1" parent="1">
          <mxGeometry x="-2222" y="826.5" width="80" height="70" as="geometry" />
        </mxCell>
        <mxCell id="P_rBqoSXO_4Jrz354kWq-148" value="" style="rounded=1;whiteSpace=wrap;html=1;shadow=1;" vertex="1" parent="1">
          <mxGeometry x="-1972" y="781.5" width="100" height="130" as="geometry" />
        </mxCell>
        <mxCell id="P_rBqoSXO_4Jrz354kWq-149" value="User13" style="text;html=1;strokeColor=#006EAF;fillColor=#1ba1e2;align=left;verticalAlign=top;spacingLeft=4;spacingRight=4;whiteSpace=wrap;overflow=hidden;rotatable=0;points=[[0,0.5],[1,0.5]];portConstraint=eastwest;rounded=1;shadow=1;fontColor=#ffffff;" vertex="1" parent="1">
          <mxGeometry x="-1947" y="792.5" width="50" height="26" as="geometry" />
        </mxCell>
        <mxCell id="P_rBqoSXO_4Jrz354kWq-150" value="Requested Attributes" style="rounded=0;whiteSpace=wrap;html=1;shadow=0;" vertex="1" parent="1">
          <mxGeometry x="-1962" y="826.5" width="80" height="70" as="geometry" />
        </mxCell>
        <mxCell id="P_rBqoSXO_4Jrz354kWq-151" value="" style="endArrow=classic;html=1;fontSize=14;fontColor=#000000;" edge="1" parent="1" source="P_rBqoSXO_4Jrz354kWq-153" target="P_rBqoSXO_4Jrz354kWq-152">
          <mxGeometry width="50" height="50" relative="1" as="geometry">
            <mxPoint x="-1826" y="830.5" as="sourcePoint" />
            <mxPoint x="-1911" y="975.5" as="targetPoint" />
          </mxGeometry>
        </mxCell>
        <mxCell id="P_rBqoSXO_4Jrz354kWq-152" value="10" style="ellipse;whiteSpace=wrap;html=1;aspect=fixed;fillColor=#e3c800;strokeColor=#B09500;fontColor=#000000;" vertex="1" parent="1">
          <mxGeometry x="-1964" y="924.5" width="28" height="28" as="geometry" />
        </mxCell>
        <mxCell id="P_rBqoSXO_4Jrz354kWq-153" value="13" style="ellipse;whiteSpace=wrap;html=1;aspect=fixed;fillColor=#1ba1e2;strokeColor=#006EAF;fontColor=#ffffff;" vertex="1" parent="1">
          <mxGeometry x="-1912.75" y="946.13" width="28.75" height="28.75" as="geometry" />
        </mxCell>
        <mxCell id="P_rBqoSXO_4Jrz354kWq-154" value="11" style="ellipse;whiteSpace=wrap;html=1;aspect=fixed;fillColor=#e3c800;strokeColor=#B09500;fontColor=#000000;" vertex="1" parent="1">
          <mxGeometry x="-1964" y="967.4300000000001" width="28" height="28" as="geometry" />
        </mxCell>
        <mxCell id="P_rBqoSXO_4Jrz354kWq-155" value="12" style="ellipse;whiteSpace=wrap;html=1;aspect=fixed;fillColor=#1ba1e2;strokeColor=#006EAF;fontColor=#ffffff;" vertex="1" parent="1">
          <mxGeometry x="-1929" y="1343" width="40" height="40" as="geometry" />
        </mxCell>
        <mxCell id="P_rBqoSXO_4Jrz354kWq-156" value="13" style="ellipse;whiteSpace=wrap;html=1;aspect=fixed;fillColor=#1ba1e2;strokeColor=#006EAF;fontColor=#ffffff;" vertex="1" parent="1">
          <mxGeometry x="-1931" y="1418" width="40" height="40" as="geometry" />
        </mxCell>
        <mxCell id="P_rBqoSXO_4Jrz354kWq-157" value="10" style="ellipse;whiteSpace=wrap;html=1;aspect=fixed;fillColor=#e3c800;strokeColor=#B09500;fontColor=#000000;" vertex="1" parent="1">
          <mxGeometry x="-2070" y="1408" width="40" height="40" as="geometry" />
        </mxCell>
        <mxCell id="P_rBqoSXO_4Jrz354kWq-158" value="11" style="ellipse;whiteSpace=wrap;html=1;aspect=fixed;fillColor=#e3c800;strokeColor=#B09500;fontColor=#000000;" vertex="1" parent="1">
          <mxGeometry x="-2066" y="1326" width="40" height="40" as="geometry" />
        </mxCell>
        <mxCell id="P_rBqoSXO_4Jrz354kWq-159" value="12" style="ellipse;whiteSpace=wrap;html=1;aspect=fixed;fillColor=#1ba1e2;strokeColor=#006EAF;fontColor=#ffffff;" vertex="1" parent="1">
          <mxGeometry x="-2195" y="1328" width="40" height="40" as="geometry" />
        </mxCell>
        <mxCell id="P_rBqoSXO_4Jrz354kWq-160" value="13" style="ellipse;whiteSpace=wrap;html=1;aspect=fixed;fillColor=#1ba1e2;strokeColor=#006EAF;fontColor=#ffffff;" vertex="1" parent="1">
          <mxGeometry x="-2195" y="1393" width="40" height="40" as="geometry" />
        </mxCell>
        <mxCell id="P_rBqoSXO_4Jrz354kWq-161" value="10" style="ellipse;whiteSpace=wrap;html=1;aspect=fixed;fillColor=#e3c800;strokeColor=#B09500;fontColor=#000000;" vertex="1" parent="1">
          <mxGeometry x="-2340" y="1328" width="40" height="40" as="geometry" />
        </mxCell>
        <mxCell id="P_rBqoSXO_4Jrz354kWq-162" value="11" style="ellipse;whiteSpace=wrap;html=1;aspect=fixed;fillColor=#e3c800;strokeColor=#B09500;fontColor=#000000;" vertex="1" parent="1">
          <mxGeometry x="-2335" y="1393" width="40" height="40" as="geometry" />
        </mxCell>
        <mxCell id="P_rBqoSXO_4Jrz354kWq-163" value="" style="group" vertex="1" connectable="0" parent="1">
          <mxGeometry x="-2019" y="811.5" width="24.5" height="21" as="geometry" />
        </mxCell>
        <mxCell id="P_rBqoSXO_4Jrz354kWq-164" value="☐" style="text;html=1;strokeColor=none;fillColor=none;align=left;verticalAlign=top;spacingLeft=4;spacingRight=4;whiteSpace=wrap;overflow=hidden;rotatable=0;points=[[0,0.5],[1,0.5]];portConstraint=eastwest;fontSize=16;" vertex="1" parent="P_rBqoSXO_4Jrz354kWq-163">
          <mxGeometry width="22.5" height="20" as="geometry" />
        </mxCell>
        <mxCell id="P_rBqoSXO_4Jrz354kWq-165" value="&lt;font style=&quot;font-size: 11px;&quot;&gt;&lt;b style=&quot;font-size: 11px;&quot;&gt;✓&lt;/b&gt;&lt;/font&gt;" style="text;html=1;strokeColor=none;fillColor=none;align=left;verticalAlign=top;spacingLeft=4;spacingRight=4;whiteSpace=wrap;overflow=hidden;rotatable=0;points=[[0,0.5],[1,0.5]];portConstraint=eastwest;fontSize=11;" vertex="1" parent="P_rBqoSXO_4Jrz354kWq-163">
          <mxGeometry x="2" y="1" width="22.5" height="20" as="geometry" />
        </mxCell>
        <mxCell id="P_rBqoSXO_4Jrz354kWq-166" value="&lt;font style=&quot;font-size: 14px;&quot;&gt;☐&lt;/font&gt;" style="text;html=1;strokeColor=none;fillColor=none;align=left;verticalAlign=top;spacingLeft=4;spacingRight=4;whiteSpace=wrap;overflow=hidden;rotatable=0;points=[[0,0.5],[1,0.5]];portConstraint=eastwest;fontSize=14;" vertex="1" parent="1">
          <mxGeometry x="-2016.5" y="924.5" width="22.5" height="20" as="geometry" />
        </mxCell>
        <mxCell id="P_rBqoSXO_4Jrz354kWq-167" value="" style="rounded=1;whiteSpace=wrap;html=1;gradientColor=#7ea6e0;fillColor=#dae8fc;strokeColor=#6c8ebf;" vertex="1" parent="1">
          <mxGeometry x="-2065" y="-609.5" width="220" height="300" as="geometry" />
        </mxCell>
        <mxCell id="P_rBqoSXO_4Jrz354kWq-168" value="&lt;font style=&quot;font-size: 18px&quot;&gt;User 12 Wants to get services from you:&lt;/font&gt;" style="text;html=1;align=left;verticalAlign=top;spacingLeft=4;spacingRight=4;whiteSpace=wrap;overflow=hidden;rotatable=0;points=[[0,0.5],[1,0.5]];portConstraint=eastwest;" vertex="1" parent="1">
          <mxGeometry x="-2045" y="-583.5" width="190" height="44" as="geometry" />
        </mxCell>
        <mxCell id="P_rBqoSXO_4Jrz354kWq-169" value="Accept" style="text;html=1;strokeColor=#666666;fillColor=#f5f5f5;align=left;verticalAlign=top;spacingLeft=4;spacingRight=4;whiteSpace=wrap;overflow=hidden;rotatable=0;points=[[0,0.5],[1,0.5]];portConstraint=eastwest;rounded=1;shadow=1;fontColor=#333333;" vertex="1" parent="1">
          <mxGeometry x="-2025" y="-513.5" width="50" height="26" as="geometry" />
        </mxCell>
        <mxCell id="P_rBqoSXO_4Jrz354kWq-170" value="Reject" style="text;html=1;strokeColor=#666666;fillColor=#f5f5f5;align=left;verticalAlign=top;spacingLeft=4;spacingRight=4;whiteSpace=wrap;overflow=hidden;rotatable=0;points=[[0,0.5],[1,0.5]];portConstraint=eastwest;rounded=1;shadow=1;fontColor=#333333;" vertex="1" parent="1">
          <mxGeometry x="-1925" y="-513.5" width="50" height="26" as="geometry" />
        </mxCell>
        <mxCell id="P_rBqoSXO_4Jrz354kWq-171" value="&lt;div&gt;Possessed Attributes&lt;/div&gt;&lt;div&gt;(Hidden)&lt;br&gt;&lt;/div&gt;" style="rounded=0;whiteSpace=wrap;html=1;shadow=0;strokeWidth=1;gradientColor=#b3b3b3;fillColor=#f5f5f5;strokeColor=#666666;" vertex="1" parent="1">
          <mxGeometry x="-2045" y="-459.5" width="80" height="130" as="geometry" />
        </mxCell>
        <mxCell id="P_rBqoSXO_4Jrz354kWq-172" value="&lt;div&gt;Requested Attributes&lt;/div&gt;&lt;div&gt;(Hidden)&lt;br&gt;&lt;/div&gt;" style="rounded=0;whiteSpace=wrap;html=1;shadow=0;gradientColor=#b3b3b3;fillColor=#f5f5f5;strokeColor=#666666;" vertex="1" parent="1">
          <mxGeometry x="-1933" y="-459.5" width="80" height="130" as="geometry" />
        </mxCell>
        <mxCell id="P_rBqoSXO_4Jrz354kWq-173" value="&lt;div&gt;Possessed Attributes&lt;/div&gt;&lt;div&gt;(Hidden)&lt;br&gt;&lt;/div&gt;" style="rounded=0;whiteSpace=wrap;html=1;shadow=0;strokeWidth=1;gradientColor=#b3b3b3;fillColor=#f5f5f5;strokeColor=#666666;" vertex="1" parent="1">
          <mxGeometry x="-2453" y="-474" width="80" height="130" as="geometry" />
        </mxCell>
        <mxCell id="P_rBqoSXO_4Jrz354kWq-174" value="&lt;div&gt;Requested Attributes&lt;/div&gt;&lt;div&gt;(Hidden)&lt;br&gt;&lt;/div&gt;" style="rounded=0;whiteSpace=wrap;html=1;shadow=0;gradientColor=#b3b3b3;fillColor=#f5f5f5;strokeColor=#666666;" vertex="1" parent="1">
          <mxGeometry x="-2341" y="-474" width="80" height="130" as="geometry" />
        </mxCell>
        <mxCell id="P_rBqoSXO_4Jrz354kWq-175" value="" style="rounded=1;whiteSpace=wrap;html=1;gradientColor=#ffd966;fillColor=#fff2cc;strokeColor=#d6b656;" vertex="1" parent="1">
          <mxGeometry x="-2379.25" y="-329.5" width="220" height="297" as="geometry" />
        </mxCell>
        <mxCell id="P_rBqoSXO_4Jrz354kWq-176" value="&lt;font style=&quot;font-size: 18px&quot;&gt;User 11 Wants to get services from you:&lt;/font&gt;" style="text;html=1;strokeColor=none;fillColor=none;align=left;verticalAlign=top;spacingLeft=4;spacingRight=4;whiteSpace=wrap;overflow=hidden;rotatable=0;points=[[0,0.5],[1,0.5]];portConstraint=eastwest;" vertex="1" parent="1">
          <mxGeometry x="-2364.25" y="-299.5" width="190" height="44" as="geometry" />
        </mxCell>
        <mxCell id="P_rBqoSXO_4Jrz354kWq-177" value="Reject" style="text;html=1;strokeColor=#666666;fillColor=#f5f5f5;align=left;verticalAlign=top;spacingLeft=4;spacingRight=4;whiteSpace=wrap;overflow=hidden;rotatable=0;points=[[0,0.5],[1,0.5]];portConstraint=eastwest;rounded=1;shadow=1;fontColor=#333333;" vertex="1" parent="1">
          <mxGeometry x="-2244.25" y="-229.5" width="50" height="26" as="geometry" />
        </mxCell>
        <mxCell id="P_rBqoSXO_4Jrz354kWq-178" value="Accept" style="text;html=1;strokeColor=#666666;fillColor=#f5f5f5;align=left;verticalAlign=top;spacingLeft=4;spacingRight=4;whiteSpace=wrap;overflow=hidden;rotatable=0;points=[[0,0.5],[1,0.5]];portConstraint=eastwest;rounded=1;shadow=1;fontColor=#333333;" vertex="1" parent="1">
          <mxGeometry x="-2344.25" y="-229.5" width="50" height="26" as="geometry" />
        </mxCell>
        <mxCell id="P_rBqoSXO_4Jrz354kWq-179" value="&lt;div&gt;Possessed Attributes&lt;/div&gt;&lt;div&gt;(Hidden)&lt;br&gt;&lt;/div&gt;" style="rounded=0;whiteSpace=wrap;html=1;shadow=0;strokeWidth=1;gradientColor=#b3b3b3;fillColor=#f5f5f5;strokeColor=#666666;" vertex="1" parent="1">
          <mxGeometry x="-2365.25" y="-183.5" width="80" height="130" as="geometry" />
        </mxCell>
        <mxCell id="P_rBqoSXO_4Jrz354kWq-180" value="&lt;div&gt;Requested Attributes&lt;/div&gt;&lt;div&gt;(Hidden)&lt;br&gt;&lt;/div&gt;" style="rounded=0;whiteSpace=wrap;html=1;shadow=0;gradientColor=#b3b3b3;fillColor=#f5f5f5;strokeColor=#666666;" vertex="1" parent="1">
          <mxGeometry x="-2253.25" y="-183.5" width="80" height="130" as="geometry" />
        </mxCell>
        <mxCell id="P_rBqoSXO_4Jrz354kWq-181" value="" style="rounded=1;whiteSpace=wrap;html=1;gradientColor=#7ea6e0;fillColor=#dae8fc;strokeColor=#6c8ebf;" vertex="1" parent="1">
          <mxGeometry x="-2120" y="-340" width="220" height="300" as="geometry" />
        </mxCell>
        <mxCell id="P_rBqoSXO_4Jrz354kWq-182" value="&lt;font style=&quot;font-size: 18px&quot;&gt;User 13 Wants to get services from you:&lt;/font&gt;" style="text;html=1;align=left;verticalAlign=top;spacingLeft=4;spacingRight=4;whiteSpace=wrap;overflow=hidden;rotatable=0;points=[[0,0.5],[1,0.5]];portConstraint=eastwest;" vertex="1" parent="1">
          <mxGeometry x="-2100" y="-314" width="190" height="44" as="geometry" />
        </mxCell>
        <mxCell id="P_rBqoSXO_4Jrz354kWq-183" value="Accept" style="text;html=1;strokeColor=#666666;fillColor=#f5f5f5;align=left;verticalAlign=top;spacingLeft=4;spacingRight=4;whiteSpace=wrap;overflow=hidden;rotatable=0;points=[[0,0.5],[1,0.5]];portConstraint=eastwest;rounded=1;shadow=1;fontColor=#333333;" vertex="1" parent="1">
          <mxGeometry x="-2080" y="-244" width="50" height="26" as="geometry" />
        </mxCell>
        <mxCell id="P_rBqoSXO_4Jrz354kWq-184" value="Reject" style="text;html=1;strokeColor=#666666;fillColor=#f5f5f5;align=left;verticalAlign=top;spacingLeft=4;spacingRight=4;whiteSpace=wrap;overflow=hidden;rotatable=0;points=[[0,0.5],[1,0.5]];portConstraint=eastwest;rounded=1;shadow=1;fontColor=#333333;" vertex="1" parent="1">
          <mxGeometry x="-1980" y="-244" width="50" height="26" as="geometry" />
        </mxCell>
        <mxCell id="P_rBqoSXO_4Jrz354kWq-185" value="&lt;div&gt;Possessed Attributes&lt;/div&gt;&lt;div&gt;(Hidden)&lt;br&gt;&lt;/div&gt;" style="rounded=0;whiteSpace=wrap;html=1;shadow=0;strokeWidth=1;gradientColor=#b3b3b3;fillColor=#f5f5f5;strokeColor=#666666;" vertex="1" parent="1">
          <mxGeometry x="-2100" y="-190" width="80" height="130" as="geometry" />
        </mxCell>
        <mxCell id="P_rBqoSXO_4Jrz354kWq-186" value="&lt;div&gt;Requested Attributes&lt;/div&gt;&lt;div&gt;(Hidden)&lt;br&gt;&lt;/div&gt;" style="rounded=0;whiteSpace=wrap;html=1;shadow=0;gradientColor=#b3b3b3;fillColor=#f5f5f5;strokeColor=#666666;" vertex="1" parent="1">
          <mxGeometry x="-1988" y="-190" width="80" height="130" as="geometry" />
        </mxCell>
        <mxCell id="P_rBqoSXO_4Jrz354kWq-187" value="&lt;font style=&quot;font-size: 18px&quot;&gt;Main Interface&lt;br&gt;&lt;/font&gt;" style="text;html=1;align=left;verticalAlign=top;spacingLeft=4;spacingRight=4;whiteSpace=wrap;overflow=hidden;rotatable=0;points=[[0,0.5],[1,0.5]];portConstraint=eastwest;fillColor=#e1d5e7;strokeColor=#9673a6;" vertex="1" parent="1">
          <mxGeometry x="-2472" y="-1060" width="144" height="44" as="geometry" />
        </mxCell>
        <mxCell id="P_rBqoSXO_4Jrz354kWq-188" value="&lt;font style=&quot;font-size: 18px&quot;&gt;Fake users&#39; requests:&lt;br&gt;&lt;/font&gt;" style="text;html=1;align=left;verticalAlign=top;spacingLeft=4;spacingRight=4;whiteSpace=wrap;overflow=hidden;rotatable=0;points=[[0,0.5],[1,0.5]];portConstraint=eastwest;fillColor=#e1d5e7;strokeColor=#9673a6;" vertex="1" parent="1">
          <mxGeometry x="-2239" y="-680" width="190" height="44" as="geometry" />
        </mxCell>
        <mxCell id="P_rBqoSXO_4Jrz354kWq-189" value="Use users&#39; private information to find their preferences." style="text;html=1;align=left;verticalAlign=top;spacingLeft=4;spacingRight=4;whiteSpace=wrap;overflow=hidden;rotatable=0;points=[[0,0.5],[1,0.5]];portConstraint=eastwest;fillColor=#e1d5e7;strokeColor=#9673a6;fontSize=14;" vertex="1" parent="1">
          <mxGeometry x="-2239" y="120" width="219" height="44" as="geometry" />
        </mxCell>
        <mxCell id="P_rBqoSXO_4Jrz354kWq-190" value="Use users&#39; private information to match them to each other." style="text;html=1;align=left;verticalAlign=top;spacingLeft=4;spacingRight=4;whiteSpace=wrap;overflow=hidden;rotatable=0;points=[[0,0.5],[1,0.5]];portConstraint=eastwest;fillColor=#e1d5e7;strokeColor=#9673a6;fontSize=14;" vertex="1" parent="1">
          <mxGeometry x="-2219.75" y="1240" width="219" height="44" as="geometry" />
        </mxCell>
        <mxCell id="P_rBqoSXO_4Jrz354kWq-191" value="Getting a reward after comparing Subject&#39;s answer to&amp;nbsp; Matching Problem Alogorithm solution." style="text;html=1;align=left;verticalAlign=top;spacingLeft=4;spacingRight=4;whiteSpace=wrap;overflow=hidden;rotatable=0;points=[[0,0.5],[1,0.5]];portConstraint=eastwest;fillColor=#e1d5e7;strokeColor=#9673a6;fontSize=14;" vertex="1" parent="1">
          <mxGeometry x="-2488" y="1696" width="219" height="74" as="geometry" />
        </mxCell>
        <mxCell id="P_rBqoSXO_4Jrz354kWq-192" value="Send a message from a fake Data Broker/Buyer to request a deal." style="text;html=1;align=left;verticalAlign=top;spacingLeft=4;spacingRight=4;whiteSpace=wrap;overflow=hidden;rotatable=0;points=[[0,0.5],[1,0.5]];portConstraint=eastwest;fillColor=#e1d5e7;strokeColor=#9673a6;fontSize=14;" vertex="1" parent="1">
          <mxGeometry x="-2183" y="1680" width="219" height="74" as="geometry" />
        </mxCell>
      </root>
    </mxGraphModel>
  </diagram>
</mxfile>
